<svg version="1.1" id="Layer_1" xmlns="http://www.w3.org/2000/svg" xmlns:xlink="http://www.w3.org/1999/xlink" x="0px" y="0px"
	 width="100%" viewBox="0 0 192 192" enable-background="new 0 0 192 192" xml:space="preserve">
<path fill="#010101" opacity="1.000000" stroke="none" 
	d="
M96.000000,193.000000 
	C65.166672,193.000000 34.833088,192.945938 4.500394,193.084885 
	C1.516055,193.098541 0.912105,192.482437 0.917410,189.499847 
	C1.027095,127.833382 1.027092,66.166634 0.917414,4.500164 
	C0.912110,1.517629 1.517500,0.912101 4.500130,0.917406 
	C66.166595,1.027097 127.833351,1.027092 189.499817,0.917417 
	C192.482315,0.912112 193.087906,1.517452 193.082596,4.500118 
	C192.972916,66.166588 192.972900,127.833336 193.082581,189.499802 
	C193.087875,192.482254 192.484055,193.098083 189.499664,193.084808 
	C158.500259,192.947037 127.500015,193.000000 96.000000,193.000000 
z"/>
<path fill="#F9F9F9" opacity="1.000000" stroke="none" 
	d="
M86.148460,125.669052 
	C86.159912,111.052773 86.002800,96.895447 86.246017,82.744995 
	C86.397263,73.945885 88.433426,65.781418 97.269676,61.359650 
	C107.979759,56.000202 121.205811,60.202980 126.552238,70.866203 
	C130.089783,62.741768 136.648773,59.743931 144.860916,59.379574 
	C157.931320,58.799660 166.244919,65.359009 166.806656,78.446609 
	C167.520111,95.068169 167.180923,111.739952 167.070663,128.388596 
	C167.039719,133.061996 164.343170,135.019180 159.443817,134.847275 
	C154.618652,134.677948 152.236710,132.437927 152.180893,127.247711 
	C152.039459,114.093834 152.124115,100.937576 152.108200,87.782288 
	C152.105789,85.784607 152.157303,83.778412 151.998215,81.791008 
	C151.564499,76.372452 148.511978,73.364258 143.466949,73.242561 
	C138.641968,73.126175 135.573105,75.753067 134.728531,81.001717 
	C134.360535,83.288651 134.283203,85.640846 134.275040,87.964111 
	C134.231689,100.286728 134.290161,112.609741 134.235306,124.932266 
	C134.206223,131.466843 132.138519,133.919510 126.923759,133.935577 
	C121.568962,133.952072 119.167252,131.203384 119.133293,124.680939 
	C119.069992,112.525017 119.119225,100.368538 119.104805,88.212311 
	C119.102432,86.215073 119.152489,84.203049 118.939430,82.223572 
	C118.329781,76.559189 115.004776,73.240822 110.116165,73.244598 
	C104.714180,73.248772 101.801460,76.343552 101.365265,82.617020 
	C101.261497,84.109406 101.303200,85.612923 101.302704,87.111328 
	C101.298416,100.100189 101.325676,113.089127 101.288231,126.077881 
	C101.270180,132.340683 99.356697,134.691605 94.351616,134.861282 
	C88.815933,135.048935 86.501579,132.585663 86.148460,125.669052 
z"/>
<path fill="#F9F9F9" opacity="1.000000" stroke="none" 
	d="
M26.931660,104.999985 
	C26.943079,96.670029 26.827757,88.837372 26.995054,81.010750 
	C27.258476,68.687134 34.179665,61.268215 46.491108,59.836628 
	C47.649323,59.701950 48.808689,59.552635 49.971836,59.488762 
	C58.921082,58.997299 67.814537,59.657227 73.074791,68.042038 
	C78.655586,76.937775 78.690590,86.779663 74.325287,96.259735 
	C70.871002,103.761330 63.874756,106.547432 56.232452,106.590263 
	C41.480595,106.672943 41.921604,108.954765 42.010754,122.221138 
	C42.021946,123.887024 42.046806,125.554031 42.002296,127.218834 
	C41.857948,132.617676 39.861336,134.770599 34.964985,134.858810 
	C29.687397,134.953903 27.004515,132.394394 26.951275,126.990623 
	C26.880705,119.827705 26.932468,112.663589 26.931660,104.999985 
z"/>
<path fill="#060606" opacity="1.000000" stroke="none" 
	d="
M58.727936,93.080734 
	C52.949093,94.745598 46.981148,92.800438 42.094738,96.477821 
	C42.094738,90.306702 41.798805,84.663445 42.181194,79.066528 
	C42.536068,73.872276 45.679779,71.749580 52.056198,71.498344 
	C59.126301,71.219780 61.935551,72.877686 63.162777,78.053001 
	C64.910553,85.423508 63.601978,90.273247 58.727936,93.080734 
z"/>
</svg>